HIERARCHY
ROOT Hips
{
	OFFSET -0.179506 -22.333345 2.821913
	CHANNELS 6 Xposition Yposition Zposition Zrotation Yrotation Xrotation 
	JOINT LeftUpLeg
	{
		OFFSET 6.951974 -9.140623 -0.681533
		CHANNELS 3 Zrotation Yrotation Xrotation
		JOINT LeftLeg
		{
			OFFSET 3.427654 -37.519855 -0.449580
			CHANNELS 3 Zrotation Yrotation Xrotation
			JOINT LeftFoot
			{
				OFFSET -1.359570 -39.796059 -4.369333
				CHANNELS 3 Zrotation Yrotation Xrotation
				JOINT LeftToe
				{
					OFFSET 2.635814 -5.579078 11.928840
					CHANNELS 3 Zrotation Yrotation Xrotation
					End Site
					{
						OFFSET 0.000000 0.000000 0.000000
					}
				}
			}
		}
	}
	JOINT RightUpLeg
	{
		OFFSET -6.767048 -9.052170 -0.431982
		CHANNELS 3 Zrotation Yrotation Xrotation
		JOINT RightLeg
		{
			OFFSET -3.829005 -38.256897 -0.885003
			CHANNELS 3 Zrotation Yrotation Xrotation
			JOINT RightFoot
			{
				OFFSET 1.577377 -39.841461 -4.231180
				CHANNELS 3 Zrotation Yrotation Xrotation
				JOINT RightToe
				{
					OFFSET -2.537174 -4.814398 12.334795
					CHANNELS 3 Zrotation Yrotation Xrotation
					End Site
					{
						OFFSET 0.000000 0.000000 0.000000
					}
				}
			}
		}
	}
	JOINT Spine
	{
		OFFSET -0.253288 10.896323 -2.669631
		CHANNELS 3 Zrotation Yrotation Xrotation
		JOINT Spine1
		{
			OFFSET 0.548704 13.518043 0.109247
			CHANNELS 3 Zrotation Yrotation Xrotation
			JOINT Spine2
			{
				OFFSET 0.145701 5.292222 2.542457
				CHANNELS 3 Zrotation Yrotation Xrotation
				JOINT Neck
				{
					OFFSET -0.277840 21.387037 -4.285703
					CHANNELS 3 Zrotation Yrotation Xrotation
					JOINT Head
					{
						OFFSET 0.515184 6.496960 5.134897
						CHANNELS 3 Zrotation Yrotation Xrotation
						End Site
						{
							OFFSET 0.000000 0.000000 0.000000
						}
					}
				}
				JOINT LeftShoulder
				{
					OFFSET 7.884473 12.174932 -3.408961
					CHANNELS 3 Zrotation Yrotation Xrotation
					JOINT LeftArm
					{
						OFFSET 9.097692 3.046888 -0.886815
						CHANNELS 3 Zrotation Yrotation Xrotation
						JOINT LeftForeArm
						{
							OFFSET 25.961220 -1.277207 -2.745643
							CHANNELS 3 Zrotation Yrotation Xrotation
							JOINT LeftHand
							{
								OFFSET 24.923361 0.898606 -0.117091
								CHANNELS 3 Zrotation Yrotation Xrotation
								End Site
								{
									OFFSET 0.000000 0.000000 0.000000
								}
							}
						}
					}
				}
				JOINT RightShoulder
				{
					OFFSET -8.175920 11.883285 -3.861528
					CHANNELS 3 Zrotation Yrotation Xrotation
					JOINT RightArm
					{
						OFFSET -9.601238 3.255117 -0.914307
						CHANNELS 3 Zrotation Yrotation Xrotation
						JOINT RightForeArm
						{
							OFFSET -25.374195 -1.332924 -2.140099
							CHANNELS 3 Zrotation Yrotation Xrotation
							JOINT RightHand
							{
								OFFSET -25.529810 0.777228 -0.555919
								CHANNELS 3 Zrotation Yrotation Xrotation
								End Site
								{
									OFFSET 0.000000 0.000000 0.000000
								}
							}
						}
					}
				}
			}
		}
	}
}
MOTION
Frames: 6
Frame Time: 0.033333
-36.735332 -276.125366 91.355133 -178.575378 0.988834 87.376178 -1.783622 0.805703 0.986640 -2.117743 -3.451346 10.795778 5.995238 13.388425 -20.719342 nan nan nan 1.656739 -3.073522 6.081221 3.957986 2.651641 -0.373495 4.655977 -3.030515 -14.435450 nan nan nan 2.077470 1.334364 9.534186 0.982938 -2.869233 0.401012 0.676271 -0.814144 1.162629 1.919803 4.151827 -3.611704 -1.206455 -0.448550 8.789139 -28.750180 -1.318938 1.348182 -57.925935 -6.466412 11.839816 2.048921 -23.860101 14.556312 -5.842028 -6.804879 -1.053057 27.286628 5.996543 4.085216 56.920333 6.899353 15.035349 -7.618514 23.711348 0.325495 6.330025 3.205413 -5.632238 
-36.804676 -276.034637 91.289696 -178.456960 0.996233 87.561806 -1.881365 0.265482 0.803591 -2.132022 -3.314497 10.911449 6.116430 13.714785 -20.802945 nan nan nan 1.659622 -2.868089 5.968888 3.917544 2.512231 -0.445233 4.517424 -3.188006 -14.674030 nan nan nan 2.064539 1.427876 8.752826 0.972776 -2.900391 0.656425 0.686731 -0.616286 1.068405 2.001570 3.899929 -2.411762 -1.117625 -0.550328 9.248599 -28.580708 -2.230541 2.155890 -58.112895 -6.488962 12.084978 2.413668 -23.496559 13.944845 -5.794003 -6.988202 -1.715546 26.851865 6.370819 4.727700 57.321280 6.832596 14.999706 -7.784460 23.350298 0.299173 6.474450 3.185736 -6.338041 
-36.833611 -275.902222 91.244942 -178.418931 1.074234 87.591324 -1.829284 0.179722 0.796009 -2.096715 -3.275796 11.066250 6.293383 13.692888 -20.700703 nan nan nan 1.778366 -2.921659 5.985493 3.918324 2.377154 -0.340785 4.382716 -3.307722 -14.909950 nan nan nan 2.069938 1.426043 8.619457 0.981082 -2.893873 0.769431 0.724559 -0.578377 1.205313 2.000314 3.952201 -2.310212 -1.050083 -0.445705 9.184938 -28.511064 -2.403918 2.306904 -58.125978 -6.521080 12.100594 2.477750 -23.666866 13.873813 -5.623540 -7.020340 -2.026156 26.655710 6.503468 4.770798 57.346698 6.876758 15.017882 -7.533343 23.324715 0.532057 6.455189 3.186627 -6.509337 
-36.870609 -275.774292 91.215378 -178.327769 1.111177 87.693708 -1.847236 0.082335 0.688738 -2.031554 -3.358857 11.268643 6.679080 13.474960 -20.307368 nan nan nan 1.798120 -3.111731 5.792509 4.240715 1.861980 0.057908 4.254629 -3.712948 -15.204050 nan nan nan 2.087947 1.453350 8.602083 0.977702 -2.883217 0.777375 0.758104 -0.653617 1.152587 2.064671 4.006137 -2.237466 -1.090782 -0.346042 9.148023 -28.473556 -2.398763 2.423132 -58.087962 -6.511370 12.037922 2.460308 -23.848780 13.961672 -5.614328 -6.967082 -2.147524 26.722124 6.396749 4.816358 57.315515 6.820246 14.880913 -7.641378 23.563609 0.326198 6.471448 3.207688 -6.550940 
-36.953606 -275.649872 91.194595 -178.158127 1.027347 87.774846 -2.078799 -0.014826 0.452159 -1.924639 -3.519414 11.800013 6.822895 13.273453 -20.069810 nan nan nan 1.810009 -2.915706 5.833458 3.576744 2.219058 0.091149 4.154700 -3.726311 -15.538573 nan nan nan 1.971366 1.502011 8.585243 1.009604 -2.896913 0.795938 0.795096 -0.755922 1.172987 2.176698 3.940074 -2.280760 -1.160361 -0.390222 9.140154 -28.459333 -2.332799 2.420078 -58.093459 -6.611759 12.052649 2.381567 -23.911521 14.059812 -5.566681 -6.809893 -2.027998 26.783770 6.242103 4.716451 57.292575 6.780367 14.863049 -7.848458 23.705352 -0.035062 6.500017 3.180044 -6.593616 
-37.114590 -275.672150 91.167328 -178.413233 0.762590 88.356747 -2.673069 -0.321711 -0.625848 -1.700701 -3.225744 12.840645 7.322610 13.469568 -20.337566 nan nan nan 1.591400 -3.679509 5.176574 2.774896 3.397515 0.129084 4.071395 -3.267299 -15.942066 nan nan nan 1.765964 1.877287 7.897872 0.968815 -2.993287 1.294697 0.881067 -0.727437 0.942154 2.118482 3.881758 -2.393911 -1.203876 -0.347607 9.319298 -28.620954 -2.374911 2.229904 -58.146595 -6.638500 11.964313 2.470023 -23.596651 14.151091 -5.702295 -7.656325 -1.226495 26.828508 6.329461 5.009849 57.030438 6.631153 14.964910 -9.771453 23.542514 0.475824 6.241601 4.894161 -3.681255 
